<svg width="333" height="74" viewBox="0 0 333 74" fill="none" xmlns="http://www.w3.org/2000/svg">
<g clip-path="url(#clip0_24_257)">
<path d="M105.428 58.68C101.665 58.68 98.4693 58 95.84 56.64C93.2107 55.28 90.8533 53.2853 88.768 50.656L94.072 45.352C95.3867 47.256 96.9507 48.752 98.764 49.84C100.577 50.8827 102.889 51.404 105.7 51.404C108.329 51.404 110.415 50.86 111.956 49.772C113.543 48.684 114.336 47.188 114.336 45.284C114.336 43.6973 113.928 42.4053 113.112 41.408C112.296 40.4107 111.208 39.5947 109.848 38.96C108.533 38.28 107.06 37.6907 105.428 37.192C103.841 36.648 102.232 36.0587 100.6 35.424C99.0133 34.744 97.54 33.9053 96.18 32.908C94.8653 31.9107 93.8 30.6187 92.984 29.032C92.168 27.4453 91.76 25.428 91.76 22.98C91.76 20.1693 92.44 17.7893 93.8 15.84C95.2053 13.8453 97.0867 12.3267 99.444 11.284C101.801 10.2413 104.431 9.72 107.332 9.72C110.46 9.72 113.248 10.332 115.696 11.556C118.189 12.78 120.207 14.344 121.748 16.248L116.444 21.552C115.084 20.0107 113.656 18.8773 112.16 18.152C110.709 17.3813 109.032 16.996 107.128 16.996C104.771 16.996 102.912 17.472 101.552 18.424C100.237 19.376 99.58 20.7133 99.58 22.436C99.58 23.8867 99.988 25.0653 100.804 25.972C101.62 26.8333 102.685 27.5813 104 28.216C105.36 28.8053 106.833 29.372 108.42 29.916C110.052 30.46 111.661 31.072 113.248 31.752C114.88 32.432 116.353 33.316 117.668 34.404C119.028 35.4467 120.116 36.8067 120.932 38.484C121.748 40.1613 122.156 42.2693 122.156 44.808C122.156 49.0693 120.637 52.4467 117.6 54.94C114.608 57.4333 110.551 58.68 105.428 58.68ZM139.823 58.68C136.876 58.68 134.201 57.932 131.799 56.436C129.441 54.94 127.56 52.9227 126.155 50.384C124.795 47.8 124.115 44.9213 124.115 41.748C124.115 38.5293 124.795 35.6507 126.155 33.112C127.56 30.528 129.441 28.488 131.799 26.992C134.201 25.4507 136.876 24.68 139.823 24.68C142.316 24.68 144.515 25.224 146.419 26.312C148.368 27.3547 149.909 28.8053 151.043 30.664C152.176 32.5227 152.743 34.6307 152.743 36.988L152.743 46.372C152.743 48.7293 152.176 50.8373 151.043 52.696C149.955 54.5547 148.436 56.028 146.487 57.116C144.537 58.1587 142.316 58.68 139.823 58.68ZM141.047 51.608C143.812 51.608 146.033 50.6787 147.711 48.82C149.433 46.9613 150.295 44.5813 150.295 41.68C150.295 39.7307 149.909 38.008 149.139 36.512C148.368 35.016 147.28 33.86 145.875 33.044C144.515 32.1827 142.905 31.752 141.047 31.752C139.233 31.752 137.624 32.1827 136.219 33.044C134.859 33.86 133.771 35.016 132.955 36.512C132.184 38.008 131.799 39.7307 131.799 41.68C131.799 43.6293 132.184 45.352 132.955 46.848C133.771 48.344 134.859 49.5227 136.219 50.384C137.624 51.2 139.233 51.608 141.047 51.608ZM149.819 71.6L149.819 49.976L151.111 42.088L149.819 34.132L149.819 25.36L157.299 25.36L157.299 71.6L149.819 71.6ZM176.616 58.68C173.851 58.68 171.38 58.068 169.204 56.844C167.073 55.62 165.396 53.9427 164.172 51.812C162.993 49.636 162.404 47.1427 162.404 44.332L162.404 25.36L169.884 25.36L169.884 43.992C169.884 45.5787 170.133 46.9387 170.632 48.072C171.176 49.16 171.947 49.9987 172.944 50.588C173.987 51.1773 175.211 51.472 176.616 51.472C178.792 51.472 180.447 50.8373 181.58 49.568C182.759 48.2533 183.348 46.3947 183.348 43.992L183.348 25.36L190.828 25.36L190.828 44.332C190.828 47.188 190.216 49.704 188.992 51.88C187.813 54.0107 186.159 55.688 184.028 56.912C181.897 58.0907 179.427 58.68 176.616 58.68ZM196.037 58L196.037 25.36L203.517 25.36L203.517 58L196.037 58ZM199.777 19.376C198.508 19.376 197.442 18.9453 196.581 18.084C195.765 17.2227 195.357 16.1573 195.357 14.888C195.357 13.6187 195.765 12.5533 196.581 11.692C197.442 10.8307 198.508 10.4 199.777 10.4C201.092 10.4 202.157 10.8307 202.973 11.692C203.789 12.5533 204.197 13.6187 204.197 14.888C204.197 16.1573 203.789 17.2227 202.973 18.084C202.157 18.9453 201.092 19.376 199.777 19.376ZM209.526 58L209.526 25.36L217.006 25.36L217.006 58L209.526 58ZM217.006 39.844L214.422 38.552C214.422 34.4267 215.329 31.0947 217.142 28.556C219.001 25.972 221.789 24.68 225.506 24.68C227.138 24.68 228.612 24.9747 229.926 25.564C231.241 26.1533 232.465 27.1053 233.598 28.42L228.702 33.452C228.113 32.8173 227.456 32.364 226.73 32.092C226.005 31.82 225.166 31.684 224.214 31.684C222.129 31.684 220.406 32.3413 219.046 33.656C217.686 34.9707 217.006 37.0333 217.006 39.844ZM249.006 58.68C245.742 58.68 242.795 57.9547 240.166 56.504C237.582 55.008 235.519 52.968 233.978 50.384C232.482 47.8 231.734 44.8987 231.734 41.68C231.734 38.4613 232.482 35.5827 233.978 33.044C235.474 30.46 237.491 28.42 240.03 26.924C242.614 25.428 245.47 24.68 248.598 24.68C251.635 24.68 254.31 25.3827 256.622 26.788C258.979 28.1933 260.815 30.12 262.13 32.568C263.49 35.016 264.17 37.804 264.17 40.932C264.17 41.476 264.124 42.0427 264.034 42.632C263.988 43.176 263.898 43.788 263.762 44.468L236.97 44.468L236.97 38.348L259.886 38.348L257.098 40.796C257.007 38.8013 256.622 37.124 255.942 35.764C255.262 34.404 254.287 33.3613 253.018 32.636C251.794 31.9107 250.275 31.548 248.462 31.548C246.558 31.548 244.903 31.956 243.498 32.772C242.092 33.588 241.004 34.744 240.234 36.24C239.463 37.6907 239.078 39.436 239.078 41.476C239.078 43.516 239.486 45.3067 240.302 46.848C241.118 48.3893 242.274 49.5907 243.77 50.452C245.266 51.268 246.988 51.676 248.938 51.676C250.615 51.676 252.156 51.3813 253.562 50.792C255.012 50.2027 256.236 49.3413 257.234 48.208L261.994 53.036C260.407 54.8947 258.48 56.3 256.214 57.252C253.947 58.204 251.544 58.68 249.006 58.68ZM273.498 58.68C272.047 58.68 270.846 58.204 269.894 57.252C268.987 56.2547 268.534 55.0533 268.534 53.648C268.534 52.1973 268.987 50.996 269.894 50.044C270.846 49.092 272.047 48.616 273.498 48.616C274.949 48.616 276.127 49.092 277.034 50.044C277.986 50.996 278.462 52.1973 278.462 53.648C278.462 55.0533 277.986 56.2547 277.034 57.252C276.127 58.204 274.949 58.68 273.498 58.68ZM297.668 58.68C294.721 58.68 292.046 57.932 289.644 56.436C287.286 54.94 285.405 52.9227 284 50.384C282.64 47.8 281.96 44.9213 281.96 41.748C281.96 38.5293 282.64 35.6507 284 33.112C285.405 30.528 287.286 28.488 289.644 26.992C292.046 25.4507 294.721 24.68 297.668 24.68C300.161 24.68 302.36 25.224 304.264 26.312C306.213 27.3547 307.754 28.8053 308.888 30.664C310.021 32.5227 310.588 34.6307 310.588 36.988L310.588 46.372C310.588 48.7293 310.021 50.8373 308.888 52.696C307.8 54.5547 306.281 56.028 304.332 57.116C302.382 58.1587 300.161 58.68 297.668 58.68ZM298.892 51.608C301.657 51.608 303.878 50.6787 305.556 48.82C307.278 46.9613 308.14 44.5813 308.14 41.68C308.14 39.7307 307.754 38.008 306.984 36.512C306.213 35.016 305.125 33.86 303.72 33.044C302.36 32.1827 300.75 31.752 298.892 31.752C297.078 31.752 295.469 32.1827 294.064 33.044C292.704 33.86 291.616 35.016 290.8 36.512C290.029 38.008 289.644 39.7307 289.644 41.68C289.644 43.6293 290.029 45.352 290.8 46.848C291.616 48.344 292.704 49.5227 294.064 50.384C295.469 51.2 297.078 51.608 298.892 51.608ZM307.664 58L307.664 49.228L308.956 41.272L307.664 33.384L307.664 25.36L315.144 25.36L315.144 58L307.664 58ZM321.133 58L321.133 25.36L328.613 25.36L328.613 58L321.133 58ZM324.873 19.376C323.604 19.376 322.538 18.9453 321.677 18.084C320.861 17.2227 320.453 16.1573 320.453 14.888C320.453 13.6187 320.861 12.5533 321.677 11.692C322.538 10.8307 323.604 10.4 324.873 10.4C326.188 10.4 327.253 10.8307 328.069 11.692C328.885 12.5533 329.293 13.6187 329.293 14.888C329.293 16.1573 328.885 17.2227 328.069 18.084C327.253 18.9453 326.188 19.376 324.873 19.376Z" fill="black"/>
<path d="M24.4515 49.3008L48.903 24.6016L24.4515 24.6016L48.903 -1.55129e-08L24.4515 -7.75646e-09L-7.74778e-09 24.6016L24.4515 24.6016L-1.55263e-08 49.3008L-2.33048e-08 74L24.4515 49.3008Z" fill="black" stroke="black" stroke-width="0.15" stroke-linejoin="round"/>
<path d="M24.4514 49.3984L48.9999 74L48.9999 49.3984L24.4514 49.3984Z" fill="black" stroke="black" stroke-width="0.15" stroke-linejoin="round"/>
</g>
<defs>
<clipPath id="clip0_24_257">
<rect width="333" height="74" fill="white"/>
</clipPath>
</defs>
</svg>
